<?xml version="1.0" encoding="utf-8"?>
<!-- Svg Vector Icons : http://www.onlinewebfonts.com/icon -->
<!DOCTYPE svg PUBLIC "-//W3C//DTD SVG 1.1//EN" "http://www.w3.org/Graphics/SVG/1.1/DTD/svg11.dtd">
<svg version="1.1" xmlns="http://www.w3.org/2000/svg" xmlns:xlink="http://www.w3.org/1999/xlink" x="0px" y="0px" viewBox="0 0 1000 1000" enable-background="new 0 0 1000 1000" xml:space="preserve">
<metadata> Svg Vector Icons : http://www.onlinewebfonts.com/icon </metadata>
<g><g transform="matrix(1 0 0 -1 0 1920)"><path d="M558.8,1140.7v49c0,10.7,2.2,18.3,6.7,22.7c4.4,4.4,12,6.7,22.7,6.7h127.4v637c0,10.7,3.9,19.9,11.6,27.6c7.7,7.7,16.9,11.6,27.6,11.6s19.9-3.9,27.6-11.6c7.7-7.7,11.6-16.9,11.6-27.6v-637h107.8c12.8,0,24.2-2.4,34.1-7.3s14.9-12.2,14.9-22.1v-49H558.8z M61,1499.8c2.6,25.6,9.7,49.9,21.4,72.9c11.6,23,26.4,42.7,44.3,59.2s38.9,29.6,62.9,39.4c24,9.8,49.1,14.7,75.3,14.7c35,0,67.6-8.2,97.6-24.7c30.1-16.5,54.4-38.9,73.1-67.4s29.7-59.8,33.1-94.1h-58.8c-5,36.1-21.2,66.3-48.6,90.7s-59.6,36.7-96.4,36.7c-36.8,0-69-12.2-96.4-36.7s-43.6-54.7-48.6-90.7H61z M169.5,944.7c-14.9,0-28.6,5.7-41,17.2c-12.4,11.5-19.8,25.2-22.1,41.2l-58,375.1H29.6c-5.5,0-10.1,1.9-13.9,5.7c-3.8,3.8-5.7,8.4-5.7,13.9v31.8c0,5.5,1.9,10.1,5.7,13.9c3.8,3.8,8.4,5.7,13.9,5.7H500c5.5,0,10.1-1.9,13.9-5.7c3.8-3.8,5.7-8.4,5.7-13.9v-31.8c0-5.5-1.9-10.1-5.7-13.9c-3.8-3.8-8.4-5.7-13.9-5.7h-18.8l-58-375.1c-2.4-15.9-9.7-29.7-22.1-41.2c-12.4-11.5-26.1-17.2-41-17.2H169.5z M519.6,944.7l39.2,156.8h392L990,944.7H519.6z"/></g></g>
</svg>